<svg width="200" height="41" viewBox="0 0 200 41" fill="none" xmlns="http://www.w3.org/2000/svg">
<path d="M30.0282 18.1925C28.8998 19.3278 28.336 20.9067 28.4899 22.4999L28.4635 22.4734C28.6217 24.3482 27.9455 26.1975 26.615 27.5279C25.2846 28.8583 23.4354 29.5346 21.5605 29.3764L21.587 29.4028C19.317 29.1915 17.1583 30.4263 16.1895 32.49C15.2208 34.5538 15.6501 37.0034 17.2628 38.6147C18.8756 40.226 21.3256 40.6531 23.3885 39.6825C25.4514 38.7119 26.6842 36.552 26.4708 34.2822L26.4988 34.3087C26.3405 32.4339 27.0168 30.5846 28.3472 29.2542C29.6776 27.9238 31.5269 27.2475 33.4017 27.4058L33.3738 27.3793C35.8686 27.6037 38.19 26.0825 38.9802 23.7055C39.7704 21.3286 38.8218 18.7203 36.6892 17.4063C34.5566 16.0924 31.8004 16.4179 30.0326 18.1925H30.0282Z" fill="#5454D4"/>
<path d="M19.1801 25.9351L19.1521 25.9087C20.7463 26.0693 22.3284 25.5056 23.4618 24.373C24.5952 23.2405 25.1601 21.6588 25.0007 20.0645L25.0286 20.091C24.8703 18.2162 25.5466 16.3669 26.877 15.0365C28.2075 13.7061 30.0567 13.0298 31.9315 13.1881L31.9036 13.1616C34.1738 13.3748 36.3339 12.1414 37.3041 10.0779C38.2743 8.01448 37.8463 5.56418 36.2339 3.95185C34.6216 2.33953 32.1713 1.9115 30.1078 2.88172C28.0444 3.85194 26.811 6.012 27.0242 8.28219L26.9977 8.25425C27.1565 10.1292 26.4804 11.9788 25.1499 13.3093C23.8193 14.6399 21.9697 15.316 20.0948 15.1572L20.1212 15.1851C18.5271 15.0245 16.945 15.5882 15.8116 16.7208C14.6782 17.8533 14.1133 19.4349 14.2727 21.0292L14.2462 21.0028C14.404 22.8775 13.7275 24.7264 12.3972 26.0567C11.0669 27.387 9.218 28.0635 7.3433 27.9057L7.36977 27.9322C5.09959 27.719 2.93952 28.9524 1.9693 31.0159C0.999082 33.0793 1.42711 35.5296 3.03944 37.1419C4.65177 38.7543 7.10206 39.1823 9.16552 38.2121C11.229 37.2419 12.4624 35.0818 12.2492 32.8116L12.2771 32.8381C12.1189 30.9632 12.7951 29.114 14.1256 27.7836C15.456 26.4531 17.3052 25.7769 19.1801 25.9351Z" fill="#FF7143"/>
<path d="M9.32353 22.9838C10.452 21.8488 11.0155 20.2695 10.8603 18.6765L10.8882 18.7029C10.7298 16.8275 11.4065 14.9778 12.7376 13.6472C14.0687 12.3167 15.9188 11.6408 17.7941 11.8L17.7662 11.7735C20.0356 11.9861 22.1946 10.7528 23.1642 8.69004C24.1339 6.62723 23.7058 4.1779 22.0941 2.56617C20.4824 0.95444 18.0331 0.526435 15.9703 1.49606C13.9074 2.46569 12.6742 4.62472 12.8868 6.89411L12.8603 6.86764C13.0186 8.74247 12.3423 10.5917 11.0119 11.9222C9.68144 13.2526 7.83218 13.9288 5.95735 13.7706L5.98382 13.7971C3.48912 13.5733 1.16818 15.0949 0.378454 17.4719C-0.411274 19.8488 0.537647 22.4568 2.67022 23.7705C4.8028 25.0841 7.55886 24.7584 9.32647 22.9838H9.32353Z" fill="#5454D4"/>
<path d="M54.8779 8.31616H59.2456V29.5706H54.8779V8.31616Z" fill="#19191B"/>
<path fill-rule="evenodd" clip-rule="evenodd" d="M66.4608 15.1418C63.5785 16.3459 61.7065 19.1689 61.719 22.2926C61.7038 24.3409 62.5129 26.3092 63.9642 27.7546C65.4154 29.2001 67.387 30.0013 69.4351 29.9779C72.5588 29.9779 75.3744 28.0946 76.5669 25.2074C77.7593 22.3203 77.0935 18.999 74.8803 16.7947C72.6671 14.5903 69.3431 13.9378 66.4608 15.1418ZM69.3731 19.0358C71.2109 19.0019 72.7328 20.4552 72.7837 22.2926C72.8333 23.2035 72.4997 24.0936 71.8636 24.7476C71.2276 25.4015 70.347 25.7596 69.4351 25.7353C67.597 25.7354 66.1021 24.2543 66.0851 22.4163C66.0681 20.5782 67.5353 19.0698 69.3731 19.0358Z" fill="#19191B"/>
<path fill-rule="evenodd" clip-rule="evenodd" d="M94.5589 28.8368V15.0132L90.3074 15.0103V16.4956C89.2703 15.2266 87.693 14.5244 86.0559 14.6029C82.0626 14.7289 78.8906 18.0025 78.8906 21.9978C78.8906 25.9931 82.0626 29.2667 86.0559 29.3926C87.693 29.4712 89.2703 28.769 90.3074 27.5V28.8309C90.3805 29.709 90.0506 30.5727 89.4108 31.1785C88.771 31.7843 87.8905 32.0665 87.0177 31.9456C85.6371 32.0865 84.3141 31.3555 83.6986 30.1118L79.9721 32.2662C81.43 34.6416 84.0928 36.0036 86.8721 35.7956C90.7442 35.7956 94.5589 33.7279 94.5589 28.8368ZM88.2335 18.6356C89.5473 19.2281 90.3689 20.5599 90.3089 22C90.3361 22.9298 89.9688 23.8278 89.2979 24.4722C88.6269 25.1165 87.7148 25.4471 86.7868 25.3824C85.3455 25.3841 84.048 24.5093 83.5091 23.1725C82.9702 21.8358 83.2983 20.3056 84.3379 19.3073C85.3774 18.309 86.9196 18.043 88.2335 18.6356Z" fill="#19191B"/>
<path fill-rule="evenodd" clip-rule="evenodd" d="M101.774 15.1418C98.892 16.3459 97.0199 19.1689 97.0324 22.2926C97.0173 24.3409 97.8264 26.3092 99.2777 27.7546C100.729 29.2001 102.7 30.0013 104.749 29.9779C107.872 29.9779 110.688 28.0946 111.88 25.2074C113.073 22.3203 112.407 18.999 110.194 16.7947C107.981 14.5903 104.657 13.9378 101.774 15.1418ZM104.687 19.0358C106.524 19.0019 108.046 20.4552 108.097 22.2926C108.147 23.2035 107.813 24.0936 107.177 24.7476C106.541 25.4015 105.661 25.7596 104.749 25.7353C102.91 25.7354 101.416 24.2543 101.399 22.4163C101.382 20.5782 102.849 19.0698 104.687 19.0358Z" fill="#19191B"/>
<path fill-rule="evenodd" clip-rule="evenodd" d="M116.12 8.69065C115.14 9.09626 114.502 10.0518 114.502 11.1118C114.516 12.5531 115.681 13.718 117.123 13.7323C118.182 13.7323 119.138 13.0939 119.544 12.1146C119.949 11.1354 119.725 10.0082 118.976 9.25872C118.226 8.50924 117.099 8.28503 116.12 8.69065ZM119.312 15.0132H114.943L114.937 29.572H119.312V15.0132Z" fill="#19191B"/>
<path fill-rule="evenodd" clip-rule="evenodd" d="M136.29 27.5823C137.596 26.1398 138.273 24.236 138.171 22.2926C138.274 20.3489 137.597 18.4445 136.291 17.0016C134.984 15.5587 133.157 14.6964 131.212 14.6059C129.573 14.5165 127.981 15.1682 126.875 16.3809V15.0132H122.508V35.3941H126.875V28.2015C127.981 29.4151 129.573 30.0674 131.212 29.9779C133.156 29.887 134.984 29.0248 136.29 27.5823ZM130.282 18.9152C132.184 18.8834 133.756 20.391 133.803 22.2926C133.869 23.2377 133.529 24.166 132.867 24.8442C132.206 25.5225 131.287 25.8862 130.34 25.8441C128.438 25.8443 126.891 24.3108 126.875 22.4086C126.859 20.5064 128.38 18.947 130.282 18.9152Z" fill="#19191B"/>
<path d="M151.649 25.2029C151.649 28.5515 148.738 29.9779 145.594 29.9779C142.995 30.2134 140.515 28.8407 139.334 26.5132L143.118 24.3588C143.433 25.4424 144.463 26.1582 145.588 26.0765C146.635 26.0765 147.16 25.7559 147.16 25.175C147.16 23.5721 139.997 24.4177 139.997 19.3809C139.997 16.2059 142.677 14.6059 145.705 14.6059C148.023 14.5325 150.198 15.7258 151.381 17.7206L147.655 19.7294C147.321 18.9498 146.553 18.4455 145.705 18.4485C144.947 18.4485 144.481 18.7427 144.481 19.2632C144.487 20.9235 151.649 19.8162 151.649 25.2029Z" fill="#19191B"/>
<path d="M167.603 15.0132V29.5721H163.236V28.203C162.214 29.4284 160.666 30.0892 159.074 29.9794C156.133 29.9794 153.633 27.8838 153.633 23.95V15.0132H158V23.3103C157.927 24.0121 158.165 24.7109 158.653 25.2208C159.141 25.7308 159.828 26.0002 160.533 25.9574C162.134 25.9574 163.24 25.0265 163.24 22.9588V15.0177L167.603 15.0132Z" fill="#19191B"/>
<path d="M192.647 20.6323V29.5706H188.28V21.0103C188.28 19.5544 187.581 18.6235 186.184 18.6235C184.728 18.6235 183.912 19.6426 183.912 21.3603V29.5706H179.546V21.0103C179.546 19.5544 178.847 18.6235 177.449 18.6235C175.993 18.6235 175.178 19.6426 175.178 21.3603V29.5706H170.811V15.0118H175.178V16.35C176.098 15.1437 177.567 14.4864 179.08 14.6044C180.6 14.53 182.048 15.2592 182.893 16.525C183.877 15.2017 185.471 14.4764 187.115 14.6044C190.458 14.6059 192.647 16.9926 192.647 20.6323Z" fill="#19191B"/>
<path d="M196.341 14.9235C198.131 14.9235 199.582 13.4724 199.582 11.6823C199.582 9.89229 198.131 8.44116 196.341 8.44116C194.551 8.44116 193.1 9.89229 193.1 11.6823C193.1 13.4724 194.551 14.9235 196.341 14.9235Z" fill="#19191B"/>
</svg>
