<svg width="128" height="30" viewBox="0 0 128 30" fill="none" xmlns="http://www.w3.org/2000/svg">
<path fill-rule="evenodd" clip-rule="evenodd" d="M75.7121 8.51584C75.1021 8.79188 74.7212 9.41102 74.7498 10.08L74.7698 10.09C74.775 10.5126 74.9493 10.9154 75.2537 11.2086C75.5581 11.5017 75.9673 11.6607 76.3898 11.65C77.0593 11.6494 77.6613 11.2418 77.9105 10.6203C78.1596 9.99886 78.006 9.28833 77.5224 8.82531C77.0387 8.3623 76.3221 8.23979 75.7121 8.51584ZM39.7198 9.25997H36.5098V22.26H39.7198V9.25997ZM45.9998 12.22C42.9998 12.22 40.9998 14.15 40.9998 17.37C40.9998 20.66 42.9298 22.54 45.9998 22.54C49.0698 22.54 50.9998 20.59 50.9998 17.37C50.9998 14.15 48.9998 12.22 45.9998 12.22ZM47.8198 17.37C47.8198 15.6 47.1298 14.56 46.0298 14.56C44.9298 14.56 44.2498 15.56 44.2498 17.37C44.2498 19.18 44.9298 20.17 46.0298 20.17C47.1298 20.17 47.8398 19.18 47.8398 17.38L47.8198 17.37ZM55.3798 22.93H52.2798L52.2998 22.94C52.4798 24.73 54.2598 26 57.0398 26.01C60.0998 26.01 62.1798 24.54 62.1798 22.19V12.45H58.9998V14.0627C58.4568 12.9758 57.3167 12.3043 56.0898 12.37C53.5798 12.37 52.0898 14.29 52.0898 17.37C52.0898 20.45 53.6498 22.24 55.9998 22.24C57.2576 22.3322 58.443 21.6457 58.9898 20.5109V22.29C58.9898 23.27 58.3498 23.93 57.1198 23.93C56.3811 24.0247 55.6698 23.6159 55.3798 22.93ZM58.9998 17.37C58.9998 15.8 58.2798 14.81 57.1398 14.81C55.9998 14.81 55.2998 15.81 55.2998 17.37C55.2998 18.93 55.9898 19.85 57.1398 19.85C58.2898 19.85 58.9998 19 58.9998 17.37ZM68.4498 12.22C65.4498 12.22 63.4498 14.15 63.4498 17.37H63.4698C63.4698 20.66 65.3898 22.54 68.4498 22.54C71.5098 22.54 73.4498 20.59 73.4498 17.37C73.4498 14.15 71.4498 12.22 68.4498 12.22ZM70.2698 17.37C70.2698 15.6 69.5698 14.56 68.4798 14.56C67.3898 14.56 66.6998 15.56 66.6998 17.37C66.6998 19.18 67.3798 20.17 68.4798 20.17C69.5798 20.17 70.2898 19.18 70.2898 17.38L70.2698 17.37ZM74.7498 12.44H77.9998V22.3H74.7998L74.7498 12.44ZM85.7998 22.44C88.2498 22.44 89.6898 20.58 89.6898 17.37L89.7498 17.38C89.7498 14.16 88.2998 12.31 85.7798 12.33C84.4794 12.2681 83.2797 13.0279 82.7798 14.23H82.7198V12.47H79.5298V25.47H82.7398V20.61H82.7998C83.3172 21.7886 84.515 22.5192 85.7998 22.44ZM86.4198 17.37C86.4198 15.81 85.6898 14.8 84.5598 14.8C83.4298 14.8 82.7198 15.8 82.7098 17.37C82.6998 18.94 83.4298 19.93 84.5598 19.93C85.6898 19.93 86.4798 19 86.4798 17.38L86.4198 17.37ZM99.5498 15.52C99.5298 13.48 97.8598 12.21 95.1698 12.21L95.2298 12.22C92.5198 12.22 90.8398 13.47 90.7798 15.43C90.7798 16.94 91.7898 17.95 93.7198 18.36L95.5798 18.75C96.3498 18.91 96.6498 19 96.6498 19.53C96.6498 20.06 96.2098 20.36 95.2698 20.36C94.3298 20.36 93.7498 19.93 93.6598 19.2H90.5498C90.6798 21.21 92.4698 22.53 95.2198 22.53C97.9698 22.53 99.8198 21.17 99.8198 19.17C99.8198 17.68 99.0198 16.88 97.0198 16.46L94.9598 16.04C94.2198 15.89 93.8498 15.73 93.8498 15.22C93.8498 14.71 94.2698 14.37 95.1498 14.37C96.0298 14.37 96.6198 14.81 96.6198 15.52H99.5498ZM110.57 22.29H107.46V20.44H107.4C107.041 21.7111 105.848 22.563 104.53 22.49C103.552 22.5218 102.607 22.1347 101.933 21.4261C101.259 20.7175 100.919 19.7548 101 18.78V12.45H104.21V18.09C104.21 19.25 104.82 19.88 105.82 19.88C106.294 19.8764 106.744 19.6673 107.053 19.3068C107.362 18.9462 107.499 18.4696 107.43 18V12.45H110.63L110.57 22.29ZM115.24 12.44H112.12L112.14 22.3H115.35V16.48C115.298 16.0706 115.425 15.6588 115.699 15.3503C115.973 15.0418 116.367 14.8667 116.78 14.87C117.66 14.87 118.15 15.4 118.15 16.4V22.3H121.21V16.46C121.154 16.0553 121.278 15.6465 121.549 15.3409C121.82 15.0353 122.211 14.8633 122.62 14.87C123.53 14.87 124 15.43 124 16.43V22.3H127.23V15.61C127.296 14.7239 126.981 13.8517 126.364 13.2121C125.748 12.5725 124.888 12.2262 124 12.26C122.642 12.1964 121.411 13.054 121 14.35H120.86C120.622 13.0508 119.435 12.1456 118.12 12.26C116.819 12.2335 115.664 13.0882 115.31 14.34H115.24V12.44Z" fill="#696871"/>
<path fill-rule="evenodd" clip-rule="evenodd" d="M30.1595 10.11C30.1597 6.03639 27.6597 2.38026 23.8636 0.902517C20.0675 -0.575227 15.7536 0.42839 12.9995 3.42999H0.519531V29.77H26.8695V17.46C28.9612 15.5891 30.1576 12.9163 30.1595 10.11ZM25.0895 10.11C25.0936 12.0604 23.9218 13.821 22.121 14.5702C20.3202 15.3194 18.2454 14.9095 16.8648 13.5318C15.4842 12.1541 15.07 10.0801 15.8155 8.27778C16.5609 6.47544 18.3191 5.3 20.2695 5.29999C22.9276 5.29999 25.084 7.45189 25.0895 10.11ZM5.58953 24.7H21.7995V19.87C21.2938 19.9538 20.7822 19.9973 20.2695 20C14.8097 19.9945 10.385 15.5698 10.3795 10.11C10.3839 9.57005 10.4341 9.03145 10.5295 8.49999H5.58953V24.7Z" fill="#696871"/>
</svg>
